<svg width="25" height="22" viewBox="0 0 25 22" fill="none" xmlns="http://www.w3.org/2000/svg">
<g clip-path="url(#clip0_99_17)">
<path d="M20.3896 0.208527H4.59673C3.51021 0.208527 2.46819 0.640145 1.6999 1.40843C0.931618 2.17672 0.5 3.21874 0.5 4.30525L0.5 17.6811C0.5 18.7676 0.931618 19.8096 1.6999 20.5779C2.46819 21.3462 3.51021 21.7778 4.59673 21.7778H20.3896C21.4761 21.7778 22.5182 21.3462 23.2864 20.5779C24.0547 19.8096 24.4863 18.7676 24.4863 17.6811V4.30525C24.4863 3.21874 24.0547 2.17672 23.2864 1.40843C22.5182 0.640145 21.4761 0.208527 20.3896 0.208527ZM2.39132 17.6811V4.30525C2.39667 3.722 2.63074 3.16415 3.04318 2.7517C3.45562 2.33926 4.01347 2.10519 4.59673 2.09985H20.3896C20.9752 2.10162 21.5366 2.33411 21.952 2.74694C22.3673 3.15976 22.6033 3.71965 22.6087 4.30525V15.6942L17.8292 12.2802C17.1491 11.7884 16.309 11.5702 15.4755 11.6689C14.642 11.7675 13.8761 12.1758 13.3296 12.8128L7.25277 19.9001H4.59673C4.01112 19.8947 3.45123 19.6588 3.03841 19.2434C2.62559 18.828 2.39309 18.2667 2.39132 17.6811ZM20.3896 19.9001H9.75178L14.7976 14.0486C15.0361 13.772 15.3696 13.5948 15.7323 13.5518C16.095 13.5088 16.4606 13.6033 16.7572 13.8165L22.5745 18.002C22.4991 18.5281 22.2368 19.0094 21.8356 19.3579C21.4344 19.7065 20.9211 19.899 20.3896 19.9001Z" fill="white"/>
<path d="M7.73068 10.0748C8.83179 10.0748 9.72442 9.1822 9.72442 8.08108C9.72442 6.97997 8.83179 6.08734 7.73068 6.08734C6.62957 6.08734 5.73694 6.97997 5.73694 8.08108C5.73694 9.1822 6.62957 10.0748 7.73068 10.0748Z" fill="white"/>
</g>
<defs>
<clipPath id="clip0_99_17">
<rect width="24" height="21.5829" fill="white" transform="translate(0.5 0.208527)"/>
</clipPath>
</defs>
</svg>
