<svg width="25" height="24" viewBox="0 0 25 24" fill="none" xmlns="http://www.w3.org/2000/svg">
<path d="M17.0525 6.435C17.1995 6.36003 17.3411 6.27482 17.4762 6.18C18.5712 5.41125 18.9087 3.9975 18.2262 3.03C17.5437 2.0625 16.1037 1.905 15.0087 2.68125C13.9137 3.4575 13.3512 4.83 12.74 6.43125L17.0525 6.435ZM3.76245 11.4225H21.2412V20.31C21.2412 20.7078 21.0832 21.0894 20.8019 21.3707C20.5206 21.652 20.139 21.81 19.7412 21.81H5.26245C4.86463 21.81 4.4831 21.652 4.20179 21.3707C3.92049 21.0894 3.76245 20.7078 3.76245 20.31V11.4225Z" stroke="white" stroke-width="1.5" stroke-linecap="round" stroke-linejoin="round"/>
<path d="M14.6938 11.4225H10.3063V21.81H14.6938V11.4225Z" stroke="white" stroke-width="1.5" stroke-linecap="round" stroke-linejoin="round"/>
<path d="M7.94755 6.435C7.80124 6.36084 7.66083 6.27559 7.52755 6.18C6.43255 5.41125 6.0913 3.9975 6.77755 3.03C7.4638 2.0625 8.90005 1.905 9.9988 2.68125C11.0975 3.4575 11.6525 4.83 12.2675 6.43125L7.94755 6.435Z" stroke="white" stroke-width="1.5" stroke-linecap="round" stroke-linejoin="round"/>
<path d="M20.9375 6.435H4.0625C3.44118 6.435 2.9375 6.93868 2.9375 7.56V10.2975C2.9375 10.9188 3.44118 11.4225 4.0625 11.4225H20.9375C21.5588 11.4225 22.0625 10.9188 22.0625 10.2975V7.56C22.0625 6.93868 21.5588 6.435 20.9375 6.435Z" stroke="white" stroke-width="1.5" stroke-linecap="round" stroke-linejoin="round"/>
<path d="M15.0949 6.435H9.90869V11.4225H15.0949V6.435Z" stroke="white" stroke-width="1.5" stroke-linecap="round" stroke-linejoin="round"/>
</svg>
