<svg width="17" height="17" viewBox="0 0 17 17" fill="none" xmlns="http://www.w3.org/2000/svg">
<path d="M8.50002 1.83333C7.08553 1.83333 5.72898 2.39523 4.72878 3.39543C3.72859 4.39562 3.16669 5.75217 3.16669 7.16666C3.16669 10.7667 7.86669 14.8333 8.06669 15.0067C8.18744 15.1099 8.34112 15.1667 8.50002 15.1667C8.65892 15.1667 8.8126 15.1099 8.93335 15.0067C9.16669 14.8333 13.8334 10.7667 13.8334 7.16666C13.8334 5.75217 13.2714 4.39562 12.2713 3.39543C11.2711 2.39523 9.91451 1.83333 8.50002 1.83333ZM8.50002 13.6C7.08002 12.2667 4.50002 9.39333 4.50002 7.16666C4.50002 6.1058 4.92145 5.08838 5.67159 4.33823C6.42174 3.58809 7.43915 3.16666 8.50002 3.16666C9.56089 3.16666 10.5783 3.58809 11.3284 4.33823C12.0786 5.08838 12.5 6.1058 12.5 7.16666C12.5 9.39333 9.92002 12.2733 8.50002 13.6ZM8.50002 4.49999C7.9726 4.49999 7.45703 4.65639 7.0185 4.94941C6.57997 5.24243 6.23817 5.6589 6.03634 6.14617C5.83451 6.63344 5.7817 7.16962 5.88459 7.6869C5.98749 8.20419 6.24146 8.67934 6.6144 9.05228C6.98734 9.42522 7.4625 9.6792 7.97978 9.78209C8.49706 9.88498 9.03324 9.83217 9.52051 9.63034C10.0078 9.42851 10.4243 9.08671 10.7173 8.64818C11.0103 8.20965 11.1667 7.69408 11.1667 7.16666C11.1667 6.45942 10.8857 5.78114 10.3856 5.28104C9.88554 4.78095 9.20726 4.49999 8.50002 4.49999ZM8.50002 8.5C8.23631 8.5 7.97853 8.4218 7.75926 8.27529C7.53999 8.12878 7.3691 7.92054 7.26818 7.67691C7.16726 7.43327 7.14086 7.16518 7.19231 6.90654C7.24375 6.6479 7.37074 6.41032 7.55721 6.22385C7.74368 6.03738 7.98126 5.91039 8.2399 5.85895C8.49854 5.8075 8.76663 5.83391 9.01026 5.93482C9.2539 6.03574 9.46214 6.20664 9.60865 6.4259C9.75515 6.64517 9.83335 6.90295 9.83335 7.16666C9.83335 7.52028 9.69288 7.85942 9.44283 8.10947C9.19278 8.35952 8.85364 8.5 8.50002 8.5Z" fill="white"/>
</svg>
