<svg width="25" height="24" viewBox="0 0 25 24" fill="none" xmlns="http://www.w3.org/2000/svg">
<path d="M20.66 4.61C19.5983 3.548 18.1908 2.90232 16.6933 2.79038C15.1958 2.67843 13.7078 3.10766 12.5 4C11.2277 3.05363 9.64402 2.62451 8.06795 2.79903C6.49188 2.97356 5.04047 3.73877 4.006 4.94058C2.97154 6.14239 2.43085 7.69152 2.49283 9.27601C2.55481 10.8605 3.21485 12.3627 4.34003 13.48L11.79 20.93C11.883 21.0237 11.9936 21.0981 12.1155 21.1489C12.2373 21.1997 12.368 21.2258 12.5 21.2258C12.632 21.2258 12.7627 21.1997 12.8846 21.1489C13.0065 21.0981 13.1171 21.0237 13.21 20.93L20.66 13.48C21.2427 12.8977 21.7049 12.2063 22.0202 11.4454C22.3356 10.6844 22.4979 9.86873 22.4979 9.045C22.4979 8.22127 22.3356 7.40561 22.0202 6.64463C21.7049 5.88365 21.2427 5.19227 20.66 4.61ZM19.25 12.07L12.5 18.81L5.75003 12.07C5.15521 11.4727 4.75001 10.713 4.58526 9.88634C4.42052 9.05963 4.50356 8.20268 4.82398 7.42299C5.1444 6.6433 5.68793 5.97559 6.38638 5.50362C7.08482 5.03165 7.90709 4.77644 8.75003 4.77C9.87614 4.77276 10.9551 5.22233 11.75 6.02C11.843 6.11373 11.9536 6.18812 12.0755 6.23889C12.1973 6.28966 12.328 6.3158 12.46 6.3158C12.592 6.3158 12.7227 6.28966 12.8446 6.23889C12.9665 6.18812 13.0771 6.11373 13.17 6.02C13.9884 5.31088 15.0455 4.93914 16.1276 4.98002C17.2096 5.0209 18.2357 5.47134 18.9982 6.24019C19.7607 7.00903 20.2026 8.03884 20.2345 9.12119C20.2664 10.2035 19.8859 11.2576 19.17 12.07H19.25Z" fill="white"/>
</svg>
